<?xml version="1.0" encoding="UTF-8" standalone="no"?>
<!DOCTYPE svg PUBLIC "-//W3C//DTD SVG 1.1//EN" "http://www.w3.org/Graphics/SVG/1.1/DTD/svg11.dtd">
<svg version="1.1" xmlns="http://www.w3.org/2000/svg" xmlns:xlink="http://www.w3.org/1999/xlink" preserveAspectRatio="xMidYMid meet" viewBox="0 0 640 640" width="640" height="640"><defs><path d="M640 320C640 496.61 496.61 640 320 640C143.39 640 0 496.61 0 320C0 143.39 143.39 0 320 0C496.61 0 640 143.39 640 320Z" id="cdfBfwguM"></path><path d="M578.15 476.37L409.65 82.2L409.68 476.38L578.15 476.37Z" id="a2I9jbptzF"></path><path d="M241.15 82.2L409.65 476.38L409.63 82.2L241.15 82.2Z" id="b227Vqacx"></path><path d="M152.91 279.29L547.78 279.29L547.78 381.54L152.91 381.54L152.91 279.29Z" id="b5U9Yj2fF0"></path><path d="M72.66 476.37L241.15 82.2L241.13 476.38L72.66 476.37Z" id="aBJuHPsoi"></path><path d="M409.65 82.2L241.15 476.38L241.18 82.2L409.65 82.2Z" id="cwcoKgcVG"></path></defs><g><g><g><use xlink:href="#cdfBfwguM" opacity="1" fill="#272727" fill-opacity="1"></use></g><g><use xlink:href="#a2I9jbptzF" opacity="1" fill="#ffffff" fill-opacity="1"></use></g><g><use xlink:href="#b227Vqacx" opacity="1" fill="#ffffff" fill-opacity="1"></use></g><g><use xlink:href="#b5U9Yj2fF0" opacity="1" fill="#272727" fill-opacity="1"></use></g><g><use xlink:href="#aBJuHPsoi" opacity="1" fill="#ffffff" fill-opacity="1"></use></g><g><use xlink:href="#cwcoKgcVG" opacity="1" fill="#ffffff" fill-opacity="1"></use></g></g></g></svg>